<?xml version="1.0" encoding="utf-8"?>
<!-- Generator: Adobe Illustrator 23.0.1, SVG Export Plug-In . SVG Version: 6.00 Build 0)  -->
<svg version="1.1" id="Layer_1" xmlns="http://www.w3.org/2000/svg" xmlns:xlink="http://www.w3.org/1999/xlink" x="0px" y="0px"
	 viewBox="0 0 448 512" style="enable-background:new 0 0 448 512;" xml:space="preserve">
<style type="text/css">
	.st0{fill:#FFFFFF;}
</style>
<path class="st0" d="M160,208h48v96c0,8.8,7.2,16,16,16h32c8.8,0,16-7.2,16-16v-96h48c8.8,0,16-7.2,16-16v-32c0-8.8-7.2-16-16-16
	h-48V96c0-8.8-7.2-16-16-16h-32c-8.8,0-16,7.2-16,16v48h-48c-8.8,0-16,7.2-16,16v32C144,200.8,151.2,208,160,208z M448,384V16
	c0-8.8-7.2-16-16-16H80C35.8,0,0,35.8,0,80v352c0,44.2,35.8,80,80,80h352c8.8,0,16-7.2,16-16v-16c0-7.8-5.6-14.3-12.9-15.7
	c-4.2-13-4.2-51.6,0-64.6C442.5,398.2,448,391.8,448,384L448,384z M394,464H80c-17.7,0-32-14.3-32-32c0-17.6,14.4-32,32-32h314
	C391.3,417.3,391.3,446.7,394,464z M400,352H80c-11.4,0-22.2,2.4-32,6.7V80c0-17.7,14.3-32,32-32h320V352z"/>
</svg>
