<?xml version="1.0" encoding="utf-8"?>
<!-- Generator: Adobe Illustrator 23.0.1, SVG Export Plug-In . SVG Version: 6.00 Build 0)  -->
<svg version="1.1" id="Layer_1" xmlns="http://www.w3.org/2000/svg" xmlns:xlink="http://www.w3.org/1999/xlink" x="0px" y="0px"
	 viewBox="0 0 384 512" style="enable-background:new 0 0 384 512;" xml:space="preserve">
<style type="text/css">
	.st0{fill:#FFFFFF;}
</style>
<path class="st0" d="M192,0C86.4,0,0,86.4,0,192c0,76.8,25.6,99.2,172.8,310.4c4.8,6.4,12,9.6,19.2,9.6s14.4-3.2,19.2-9.6
	C358.4,291.2,384,268.8,384,192C384,86.4,297.6,0,192,0z M192,474c-19.7-28.2-37.1-52.9-52.5-74.7C42.6,262,32,245.1,32,192
	c0-88.2,71.8-160,160-160s160,71.8,160,160c0,53.1-10.6,70-107.5,207.3C229,421.3,211.4,446.2,192,474L192,474z M192,296
	c-13.3,0-24,10.7-24,24c0,13.2,10.7,24,24,24s24-10.8,24-24C216,306.7,205.3,296,192,296z M192.7,96c-41.1,0-75,31.1-79.5,71
	c-0.5,4.8,3.2,9,8,9h16.1c3.9,0,7.3-2.9,7.9-6.8c3.3-23.3,23.4-41.2,47.5-41.2c31.2,0,48,24.7,48,48c0,20.6-20.8,32.5-55.2,49.7
	c-5.4,2.7-8.8,8.3-8.8,14.3v24c0,4.4,3.6,8,8,8h16c4.4,0,8-3.6,8-8v-14.1c31.7-16.1,64-35.6,64-73.9C272.7,136.7,242.7,96,192.7,96z
	"/>
</svg>
