<?xml version="1.0" encoding="utf-8"?>
<!-- Generator: Adobe Illustrator 23.0.1, SVG Export Plug-In . SVG Version: 6.00 Build 0)  -->
<svg version="1.1" id="Layer_1" xmlns="http://www.w3.org/2000/svg" xmlns:xlink="http://www.w3.org/1999/xlink" x="0px" y="0px"
	 viewBox="0 0 448 512" style="enable-background:new 0 0 448 512;" xml:space="preserve">
<style type="text/css">
	.st0{fill:#FFFFFF;}
</style>
<path class="st0" d="M400,32H48C21.5,32,0,53.5,0,80v352c0,26.5,21.5,48,48,48h352c26.5,0,48-21.5,48-48V80
	C448,53.5,426.5,32,400,32z M345.6,321.1c4.7,4.7,4.7,12.3,0,17L306,377.6c-4.7,4.7-12.3,4.7-17,0L224,312l-65.1,65.6
	c-4.7,4.7-12.3,4.7-17,0L102.4,338c-4.7-4.7-4.7-12.3,0-17l65.6-65l-65.6-65.1c-4.7-4.7-4.7-12.3,0-17l39.6-39.6
	c4.7-4.7,12.3-4.7,17,0l65,65.7l65.1-65.6c4.7-4.7,12.3-4.7,17,0l39.6,39.6c4.7,4.7,4.7,12.3,0,17L280,256L345.6,321.1z"/>
</svg>
